{"title":"Finest Collection Of Rebeca Linares","uid":7818774,"size":24073984521,"categoryP":"porn","categoryS":"movies","magnet":"?xt=urn:btih:59909e154a3b40bf5ec6664d719a90e7cca6bdff&amp;dn=Finest+Collection+Of+Rebeca+Linares&amp;tr=udp%3A%2F%2Ftracker.openbittorrent.com%3A80&amp;tr=udp%3A%2F%2Fopen.demonii.com%3A1337&amp;tr=udp%3A%2F%2Ftracker.coppersurfer.tk%3A6969&amp;tr=udp%3A%2F%2Fexodus.desync.com%3A6969","seeders":0,"leechers":1,"uploader":"soulless123","files":-1,"time":1352744411,"description":" &lt;a href=&quot;http://bayimg.com/lAFeNAaEO&quot; rel=&quot;nofollow&quot; target=&quot;_NEW&quot;&gt;http://bayimg.com/lAFeNAaEO&lt;/a&gt;\n &lt;a href=&quot;\nhttp://bayimg.com/lAfEoAaeo&quot; rel=&quot;nofollow&quot; target=&quot;_NEW&quot;&gt;\nhttp://bayimg.com/lAfEoAaeo&lt;/a&gt;\n &lt;a href=&quot;\nhttp://bayimg.com/lAFepAAeo&quot; rel=&quot;nofollow&quot; target=&quot;_NEW&quot;&gt;\nhttp://bayimg.com/lAFepAAeo&lt;/a&gt;\n &lt;a href=&quot;\nhttp://bayimg.com/MaFeBaAeO&quot; rel=&quot;nofollow&quot; target=&quot;_NEW&quot;&gt;\nhttp://bayimg.com/MaFeBaAeO&lt;/a&gt;\n &lt;a href=&quot;\nhttp://bayimg.com/MAFeDAaeo&quot; rel=&quot;nofollow&quot; target=&quot;_NEW&quot;&gt;\nhttp://bayimg.com/MAFeDAaeo&lt;/a&gt;\n &lt;a href=&quot;\nhttp://bayimg.com/MAFEeAaeO&quot; rel=&quot;nofollow&quot; target=&quot;_NEW&quot;&gt;\nhttp://bayimg.com/MAFEeAaeO&lt;/a&gt;\n &lt;a href=&quot;\nhttp://bayimg.com/mAfEFaaEo&quot; rel=&quot;nofollow&quot; target=&quot;_NEW&quot;&gt;\nhttp://bayimg.com/mAfEFaaEo&lt;/a&gt;\n\n\n\n\n\n\n\nSeeding Time 24/7\n\nDon't Forget To Say Thanks If You Like My Post\n\n\n\n-=Media Info=-\n\n\nFormat : Windows Media\nFile size : 606 MiB\nDuration : 35mn 59s\nOverall bit rate mode : Constant\nOverall bit rate : 2 355 Kbps\nMaximum Overall bit rate : 2 386 Kbps\nEncoded date : UTC 2009-08-16 00:24:38.609\n\nVideo\nID : 2\nFormat : VC-1\nFormat profile : MP@HL\nCodec ID : WMV3\nCodec ID/Info : Windows Media Video 9\nCodec ID/Hint : WMV3\nDescription of the codec : Windows Media Video 9 - Professional\nDuration : 35mn 59s\nBit rate mode : Constant\nBit rate : 2 300 Kbps\nWidth : 768 pixels\nHeight : 432 pixels\nDisplay aspect ratio : 16:9\nFrame rate : 29.970 fps\nBit depth : 8 bits\nScan type : Progressive\nCompression mode : Lossy\nBits/(Pixel*Frame) : 0.231\nStream size : 592 MiB (98%)\nLanguage : English (US)\n\nAudio\nID : 1\nFormat : WMA\nFormat version : Version 2\nCodec ID : 161\nCodec ID/Info : Windows Media Audio\nDescription of the codec : Windows Media Audio 9 - 64 kbps, 44 kHz, stereo (A/V) 1-pass CBR\nDuration : 35mn 59s\nBit rate mode : Constant\nBit rate : 64.0 Kbps\nChannel(s) : 2 channels\nSampling rate : 44.1 KHz\nBit depth : 16 bits\nStream size : 16.5 MiB (3%)\nLanguage : English (US)","torrent":{"xt":"urn:btih:59909e154a3b40bf5ec6664d719a90e7cca6bdff","amp;dn":"Finest+Collection+Of+Rebeca+Linares","amp;tr":["udp%3A%2F%2Ftracker.openbittorrent.com%3A80","udp%3A%2F%2Fopen.demonii.com%3A1337","udp%3A%2F%2Ftracker.coppersurfer.tk%3A6969","udp%3A%2F%2Fexodus.desync.com%3A6969"],"infoHash":"59909e154a3b40bf5ec6664d719a90e7cca6bdff","infoHashBuffer":{"type":"Buffer","data":[89,144,158,21,74,59,64,191,94,198,102,77,113,154,144,231,204,166,189,255]},"announce":[],"urlList":[]}}